<svg fill="none" xmlns="http://www.w3.org/2000/svg" viewBox="0 0 48 48">
    <path d="M26.57 35.87c-.83.08-1.69.13-2.57.13-.88 0-1.74-.05-2.57-.13-2.51-.28-4.8-.92-6.85-1.78-1.23-.51-2.37-1.1-3.43-1.74-2.18-1.28-3.99-2.76-5.41-4.1C3.29 25.93 2 24 2 24s1.29-1.93 3.74-4.25c1.42-1.34 3.23-2.82 5.41-4.1 1.06-.64 2.2-1.23 3.43-1.74.92-.27 1.9-.41 2.92-.41 1.7 0 3.31.41 4.73 1.13.63.32 1.22.7 1.77 1.13.98.77 1.81 1.71 2.46 2.77-.75-.34-1.58-.53-2.46-.53-.88 0-1.71.19-2.46.53C19.46 19.47 18 21.57 18 24c0 3.73 1.64 7.08 4.23 9.37.55.49 1.14.93 1.77 1.31.8.49 1.66.89 2.57 1.19Z" fill="#01173B"/>
    <path d="M46 24s-1.29 1.93-3.74 4.25c-1.42 1.34-3.23 2.82-5.41 4.1-1.06.64-2.2 1.23-3.43 1.74-.92.27-1.9.41-2.92.41-1.7 0-3.31-.41-4.73-1.13-.63-.32-1.22-.7-1.77-1.13-.98-.77-1.81-1.71-2.46-2.77.75.34 1.58.53 2.46.53.88 0 1.71-.19 2.46-.53C28.54 28.53 30 26.43 30 24c0-3.73-1.64-7.08-4.23-9.37-.55-.49-1.14-.93-1.77-1.31-.8-.49-1.66-.89-2.57-1.19.83-.08 1.69-.13 2.57-.13.88 0 1.74.05 2.57.13 2.51.28 4.8.92 6.85 1.78 1.23.51 2.37 1.1 3.43 1.74 2.18 1.28 3.99 2.76 5.41 4.1C44.71 22.07 46 24 46 24Z" fill="#4669A3"/>
</svg>
